<mxfile host="app.diagrams.net" agent="Mozilla/5.0 (Windows NT 10.0; Win64; x64) AppleWebKit/537.36 (KHTML, like Gecko) Chrome/136.0.0.0 Safari/537.36" version="27.0.5">
  <diagram name="1 oldal" id="Ghkd28NUBnx_2Z-D6c8a">
    <mxGraphModel dx="983" dy="522" grid="1" gridSize="10" guides="1" tooltips="1" connect="1" arrows="1" fold="1" page="1" pageScale="1" pageWidth="827" pageHeight="1169" math="0" shadow="0">
      <root>
        <mxCell id="0" />
        <mxCell id="1" parent="0" />
        <mxCell id="jS4FJ0WYf3dUqRhWNFP8-2" value="Jegy" style="rounded=0;whiteSpace=wrap;html=1;" parent="1" vertex="1">
          <mxGeometry x="480" y="180" width="120" height="30" as="geometry" />
        </mxCell>
        <mxCell id="jS4FJ0WYf3dUqRhWNFP8-3" value="Járat" style="rounded=0;whiteSpace=wrap;html=1;" parent="1" vertex="1">
          <mxGeometry x="480" y="310" width="120" height="30" as="geometry" />
        </mxCell>
        <mxCell id="jS4FJ0WYf3dUqRhWNFP8-5" value="Tag" style="rounded=0;whiteSpace=wrap;html=1;" parent="1" vertex="1">
          <mxGeometry x="260" y="180" width="120" height="30" as="geometry" />
        </mxCell>
        <mxCell id="jS4FJ0WYf3dUqRhWNFP8-6" value="Állomás" style="rounded=0;whiteSpace=wrap;html=1;" parent="1" vertex="1">
          <mxGeometry x="260" y="440" width="120" height="30" as="geometry" />
        </mxCell>
        <mxCell id="jS4FJ0WYf3dUqRhWNFP8-30" value="Megáll" style="rounded=0;whiteSpace=wrap;html=1;" parent="1" vertex="1">
          <mxGeometry x="480" y="440" width="120" height="30" as="geometry" />
        </mxCell>
        <mxCell id="jS4FJ0WYf3dUqRhWNFP8-31" value="" style="group;rotation=-180;" parent="1" vertex="1" connectable="0">
          <mxGeometry x="380" y="445" width="100" height="20" as="geometry" />
        </mxCell>
        <mxCell id="jS4FJ0WYf3dUqRhWNFP8-32" value="" style="endArrow=none;html=1;rounded=0;" parent="jS4FJ0WYf3dUqRhWNFP8-31" edge="1">
          <mxGeometry width="50" height="50" relative="1" as="geometry">
            <mxPoint x="100" y="10" as="sourcePoint" />
            <mxPoint y="10" as="targetPoint" />
          </mxGeometry>
        </mxCell>
        <mxCell id="jS4FJ0WYf3dUqRhWNFP8-33" value="" style="endArrow=none;html=1;rounded=0;" parent="jS4FJ0WYf3dUqRhWNFP8-31" edge="1">
          <mxGeometry width="50" height="50" relative="1" as="geometry">
            <mxPoint x="100" as="sourcePoint" />
            <mxPoint x="86" y="10" as="targetPoint" />
          </mxGeometry>
        </mxCell>
        <mxCell id="jS4FJ0WYf3dUqRhWNFP8-34" value="" style="endArrow=none;html=1;rounded=0;" parent="jS4FJ0WYf3dUqRhWNFP8-31" edge="1">
          <mxGeometry width="50" height="50" relative="1" as="geometry">
            <mxPoint x="100" y="20" as="sourcePoint" />
            <mxPoint x="86" y="10" as="targetPoint" />
          </mxGeometry>
        </mxCell>
        <mxCell id="jS4FJ0WYf3dUqRhWNFP8-36" value="" style="group;rotation=-90;" parent="1" vertex="1" connectable="0">
          <mxGeometry x="490" y="380" width="100" height="20" as="geometry" />
        </mxCell>
        <mxCell id="jS4FJ0WYf3dUqRhWNFP8-37" value="" style="endArrow=none;html=1;rounded=0;" parent="jS4FJ0WYf3dUqRhWNFP8-36" edge="1">
          <mxGeometry width="50" height="50" relative="1" as="geometry">
            <mxPoint x="50" y="60" as="sourcePoint" />
            <mxPoint x="50" y="-40" as="targetPoint" />
          </mxGeometry>
        </mxCell>
        <mxCell id="jS4FJ0WYf3dUqRhWNFP8-38" value="" style="endArrow=none;html=1;rounded=0;" parent="jS4FJ0WYf3dUqRhWNFP8-36" edge="1">
          <mxGeometry width="50" height="50" relative="1" as="geometry">
            <mxPoint x="60" y="60" as="sourcePoint" />
            <mxPoint x="50" y="46" as="targetPoint" />
          </mxGeometry>
        </mxCell>
        <mxCell id="jS4FJ0WYf3dUqRhWNFP8-39" value="" style="endArrow=none;html=1;rounded=0;" parent="jS4FJ0WYf3dUqRhWNFP8-36" edge="1">
          <mxGeometry width="50" height="50" relative="1" as="geometry">
            <mxPoint x="40" y="60" as="sourcePoint" />
            <mxPoint x="50" y="46" as="targetPoint" />
          </mxGeometry>
        </mxCell>
        <mxCell id="jS4FJ0WYf3dUqRhWNFP8-63" value="" style="group;rotation=90;" parent="1" vertex="1" connectable="0">
          <mxGeometry x="490" y="250" width="100" height="20" as="geometry" />
        </mxCell>
        <mxCell id="jS4FJ0WYf3dUqRhWNFP8-64" value="" style="endArrow=none;html=1;rounded=0;" parent="jS4FJ0WYf3dUqRhWNFP8-63" edge="1">
          <mxGeometry width="50" height="50" relative="1" as="geometry">
            <mxPoint x="50" y="-40" as="sourcePoint" />
            <mxPoint x="50" y="60" as="targetPoint" />
          </mxGeometry>
        </mxCell>
        <mxCell id="jS4FJ0WYf3dUqRhWNFP8-65" value="" style="endArrow=none;html=1;rounded=0;" parent="jS4FJ0WYf3dUqRhWNFP8-63" edge="1">
          <mxGeometry width="50" height="50" relative="1" as="geometry">
            <mxPoint x="40" y="-40" as="sourcePoint" />
            <mxPoint x="50" y="-26" as="targetPoint" />
          </mxGeometry>
        </mxCell>
        <mxCell id="jS4FJ0WYf3dUqRhWNFP8-66" value="" style="endArrow=none;html=1;rounded=0;" parent="jS4FJ0WYf3dUqRhWNFP8-63" edge="1">
          <mxGeometry width="50" height="50" relative="1" as="geometry">
            <mxPoint x="60" y="-40" as="sourcePoint" />
            <mxPoint x="50" y="-26" as="targetPoint" />
          </mxGeometry>
        </mxCell>
        <mxCell id="jS4FJ0WYf3dUqRhWNFP8-73" value="" style="group;rotation=-180;" parent="1" vertex="1" connectable="0">
          <mxGeometry x="380" y="185" width="100" height="20" as="geometry" />
        </mxCell>
        <mxCell id="jS4FJ0WYf3dUqRhWNFP8-74" value="" style="endArrow=none;html=1;rounded=0;" parent="jS4FJ0WYf3dUqRhWNFP8-73" edge="1">
          <mxGeometry width="50" height="50" relative="1" as="geometry">
            <mxPoint x="100" y="10" as="sourcePoint" />
            <mxPoint y="10" as="targetPoint" />
          </mxGeometry>
        </mxCell>
        <mxCell id="jS4FJ0WYf3dUqRhWNFP8-75" value="" style="endArrow=none;html=1;rounded=0;" parent="jS4FJ0WYf3dUqRhWNFP8-73" edge="1">
          <mxGeometry width="50" height="50" relative="1" as="geometry">
            <mxPoint x="100" as="sourcePoint" />
            <mxPoint x="86" y="10" as="targetPoint" />
          </mxGeometry>
        </mxCell>
        <mxCell id="jS4FJ0WYf3dUqRhWNFP8-76" value="" style="endArrow=none;html=1;rounded=0;" parent="jS4FJ0WYf3dUqRhWNFP8-73" edge="1">
          <mxGeometry width="50" height="50" relative="1" as="geometry">
            <mxPoint x="100" y="20" as="sourcePoint" />
            <mxPoint x="86" y="10" as="targetPoint" />
          </mxGeometry>
        </mxCell>
        <mxCell id="SHl5yc631p2XTNAET30Z-1" value="Kedvezmények" style="rounded=0;whiteSpace=wrap;html=1;" parent="1" vertex="1">
          <mxGeometry x="700" y="180" width="120" height="30" as="geometry" />
        </mxCell>
        <mxCell id="SHl5yc631p2XTNAET30Z-2" value="Szerelvény" style="rounded=0;whiteSpace=wrap;html=1;" parent="1" vertex="1">
          <mxGeometry x="700" y="310" width="120" height="30" as="geometry" />
        </mxCell>
        <mxCell id="SHl5yc631p2XTNAET30Z-3" value="" style="group;rotation=0;" parent="1" vertex="1" connectable="0">
          <mxGeometry x="600" y="315" width="100" height="20" as="geometry" />
        </mxCell>
        <mxCell id="SHl5yc631p2XTNAET30Z-4" value="" style="endArrow=none;html=1;rounded=0;" parent="SHl5yc631p2XTNAET30Z-3" edge="1">
          <mxGeometry width="50" height="50" relative="1" as="geometry">
            <mxPoint y="10" as="sourcePoint" />
            <mxPoint x="100" y="10" as="targetPoint" />
          </mxGeometry>
        </mxCell>
        <mxCell id="SHl5yc631p2XTNAET30Z-5" value="" style="endArrow=none;html=1;rounded=0;" parent="SHl5yc631p2XTNAET30Z-3" edge="1">
          <mxGeometry width="50" height="50" relative="1" as="geometry">
            <mxPoint y="20" as="sourcePoint" />
            <mxPoint x="14" y="10" as="targetPoint" />
          </mxGeometry>
        </mxCell>
        <mxCell id="SHl5yc631p2XTNAET30Z-6" value="" style="endArrow=none;html=1;rounded=0;" parent="SHl5yc631p2XTNAET30Z-3" edge="1">
          <mxGeometry width="50" height="50" relative="1" as="geometry">
            <mxPoint as="sourcePoint" />
            <mxPoint x="14" y="10" as="targetPoint" />
          </mxGeometry>
        </mxCell>
        <mxCell id="nzEVWqWdS4FDqgXbygv9-3" style="edgeStyle=orthogonalEdgeStyle;rounded=0;orthogonalLoop=1;jettySize=auto;html=1;exitX=0.5;exitY=0;exitDx=0;exitDy=0;entryX=0.5;entryY=1;entryDx=0;entryDy=0;endArrow=none;startFill=0;" parent="1" source="SHl5yc631p2XTNAET30Z-12" target="jS4FJ0WYf3dUqRhWNFP8-5" edge="1">
          <mxGeometry relative="1" as="geometry" />
        </mxCell>
        <mxCell id="SHl5yc631p2XTNAET30Z-12" value="Admin" style="rounded=0;whiteSpace=wrap;html=1;" parent="1" vertex="1">
          <mxGeometry x="260" y="310" width="120" height="30" as="geometry" />
        </mxCell>
        <mxCell id="SHl5yc631p2XTNAET30Z-18" value="" style="group;rotation=0;" parent="1" vertex="1" connectable="0">
          <mxGeometry x="600" y="185" width="100" height="20" as="geometry" />
        </mxCell>
        <mxCell id="SHl5yc631p2XTNAET30Z-19" value="" style="endArrow=none;html=1;rounded=0;" parent="SHl5yc631p2XTNAET30Z-18" edge="1">
          <mxGeometry width="50" height="50" relative="1" as="geometry">
            <mxPoint y="10" as="sourcePoint" />
            <mxPoint x="100" y="10" as="targetPoint" />
          </mxGeometry>
        </mxCell>
        <mxCell id="SHl5yc631p2XTNAET30Z-20" value="" style="endArrow=none;html=1;rounded=0;" parent="SHl5yc631p2XTNAET30Z-18" edge="1">
          <mxGeometry width="50" height="50" relative="1" as="geometry">
            <mxPoint y="20" as="sourcePoint" />
            <mxPoint x="14" y="10" as="targetPoint" />
          </mxGeometry>
        </mxCell>
        <mxCell id="SHl5yc631p2XTNAET30Z-21" value="" style="endArrow=none;html=1;rounded=0;" parent="SHl5yc631p2XTNAET30Z-18" edge="1">
          <mxGeometry width="50" height="50" relative="1" as="geometry">
            <mxPoint as="sourcePoint" />
            <mxPoint x="14" y="10" as="targetPoint" />
          </mxGeometry>
        </mxCell>
        <mxCell id="ccovnPDSEgLL3NCxAdl6-2" value="" style="edgeStyle=orthogonalEdgeStyle;rounded=0;orthogonalLoop=1;jettySize=auto;html=1;startArrow=none;startFill=0;endArrow=none;" edge="1" parent="1" source="ccovnPDSEgLL3NCxAdl6-1" target="jS4FJ0WYf3dUqRhWNFP8-2">
          <mxGeometry relative="1" as="geometry" />
        </mxCell>
        <mxCell id="ccovnPDSEgLL3NCxAdl6-1" value="Vásárlás" style="rounded=0;whiteSpace=wrap;html=1;" vertex="1" parent="1">
          <mxGeometry x="480" y="50" width="120" height="30" as="geometry" />
        </mxCell>
        <mxCell id="ccovnPDSEgLL3NCxAdl6-5" value="" style="group;rotation=-90;" vertex="1" connectable="0" parent="1">
          <mxGeometry x="490" y="120" width="100" height="20" as="geometry" />
        </mxCell>
        <mxCell id="ccovnPDSEgLL3NCxAdl6-6" value="" style="endArrow=none;html=1;rounded=0;" edge="1" parent="ccovnPDSEgLL3NCxAdl6-5">
          <mxGeometry width="50" height="50" relative="1" as="geometry">
            <mxPoint x="50" y="60" as="sourcePoint" />
            <mxPoint x="50" y="-40" as="targetPoint" />
          </mxGeometry>
        </mxCell>
        <mxCell id="ccovnPDSEgLL3NCxAdl6-7" value="" style="endArrow=none;html=1;rounded=0;" edge="1" parent="ccovnPDSEgLL3NCxAdl6-5">
          <mxGeometry width="50" height="50" relative="1" as="geometry">
            <mxPoint x="60" y="60" as="sourcePoint" />
            <mxPoint x="50" y="46" as="targetPoint" />
          </mxGeometry>
        </mxCell>
        <mxCell id="ccovnPDSEgLL3NCxAdl6-8" value="" style="endArrow=none;html=1;rounded=0;" edge="1" parent="ccovnPDSEgLL3NCxAdl6-5">
          <mxGeometry width="50" height="50" relative="1" as="geometry">
            <mxPoint x="40" y="60" as="sourcePoint" />
            <mxPoint x="50" y="46" as="targetPoint" />
          </mxGeometry>
        </mxCell>
      </root>
    </mxGraphModel>
  </diagram>
</mxfile>
